<?xml version="1.0" standalone="no"?>
<!DOCTYPE svg PUBLIC "-//W3C//DTD SVG 20010904//EN"
 "http://www.w3.org/TR/2001/REC-SVG-20010904/DTD/svg10.dtd">
<svg version="1.0" xmlns="http://www.w3.org/2000/svg"
 width="512.000000pt" height="512.000000pt" viewBox="0 0 512.000000 512.000000"
 preserveAspectRatio="xMidYMid meet">
<metadata>
Created by potrace 1.14, written by Peter Selinger 2001-2017
</metadata>
<g transform="translate(0.000000,512.000000) scale(0.100000,-0.100000)"
fill="#000000" stroke="none">
<path d="M415 5110 c-183 -38 -330 -170 -391 -350 -18 -53 -19 -134 -19 -2200
0 -2066 1 -2147 19 -2200 52 -154 168 -274 322 -332 l59 -23 2155 0 2155 0 59
23 c154 58 270 178 322 332 18 53 19 134 19 2200 0 2066 -1 2147 -19 2200 -52
154 -168 274 -322 332 l-59 23 -2130 1 c-1172 1 -2148 -2 -2170 -6z m3680
-1245 c308 -78 524 -300 612 -630 25 -93 27 -114 27 -315 0 -182 -3 -233 -22
-335 -70 -368 -246 -672 -502 -866 -269 -205 -675 -266 -980 -149 -282 109
-484 377 -529 704 -14 99 -14 325 0 441 42 348 177 644 393 861 268 270 647
379 1001 289z m-2190 15 c117 -17 186 -38 284 -86 127 -63 241 -173 294 -284
56 -117 71 -187 70 -325 -1 -134 -22 -235 -72 -342 -133 -284 -445 -492 -812
-543 -46 -7 -100 -15 -119 -19 l-34 -7 -67 -364 c-36 -201 -72 -383 -79 -405
-38 -118 -107 -207 -195 -252 -38 -20 -70 -27 -135 -31 -316 -18 -564 230
-635 633 -42 243 -23 634 46 910 53 214 151 435 260 590 80 112 222 255 314
316 148 98 334 174 485 199 41 6 82 13 90 15 37 7 242 4 305 -5z"/>
<path d="M3750 3560 c-400 -47 -670 -504 -647 -1095 8 -221 55 -363 157 -477
97 -108 218 -155 376 -145 299 18 534 241 635 602 42 152 53 243 53 440 -1
162 -4 202 -23 270 -30 111 -73 195 -136 264 -105 113 -246 161 -415 141z"/>
<path d="M1474 3565 c-356 -77 -618 -401 -727 -896 -38 -171 -50 -285 -50
-489 0 -152 3 -203 21 -285 38 -177 129 -325 201 -325 64 0 88 66 146 402 25
145 48 275 51 290 5 25 2 27 -33 33 -136 22 -175 47 -189 120 -23 123 58 189
202 164 36 -6 67 -10 69 -8 2 2 28 142 58 311 31 169 63 323 73 343 31 66 105
105 201 105 65 0 112 -18 141 -55 33 -42 29 -119 -24 -427 -26 -148 -44 -271
-42 -274 3 -3 39 2 79 11 306 63 468 240 486 531 15 239 -103 402 -324 449
-84 18 -257 18 -339 0z"/>
</g>
</svg>
